<?xml version="1.0" encoding="utf-8"?>
<!-- Generator: Adobe Illustrator 27.0.0, SVG Export Plug-In . SVG Version: 6.00 Build 0)  -->
<svg version="1.1" id="Layer_1" xmlns="http://www.w3.org/2000/svg" xmlns:xlink="http://www.w3.org/1999/xlink" x="0px" y="0px"
  viewBox="0 0 512 512" style="enable-background:new 100 0 512 512;" xml:space="preserve">
<style type="text/css">
	.st0{fill:#FFE81F;}
</style>
<g id="XMLID_1_">
	<rect id="XMLID_3_" x="-170" y="-3.711" width="1000.465" height="622.979"/>
	<path id="XMLID_6_" class="st0" d="M113.2,265.82l6.31,18.66c3.37,10.1,6.45,18.1,6.87,18.1l0,0c0.42-0.42,12.91-36.47,12.91-36.47
		h23.99l-29.04,84.44h-16.69c0,0-17.81-51.48-17.81-51.76l-18.52,51.2H64.67l-28.62-84.16h23.99c0,0,13.05,37.17,13.33,37.17l0,0
		l12.91-37.17H113.2 M27.77,259.93l2.67,7.72l28.62,84.16l1.4,3.93h4.21h16.55h4.07l1.4-3.79l12.91-35.49
		c1.12,3.23,2.38,6.73,3.51,10.24c4.49,12.91,8.98,25.81,8.98,25.81l1.4,3.93h4.21h16.69h4.21l1.4-3.93l29.04-84.44l2.67-7.72h-8.14
		h-23.99h-4.21l-1.4,3.93c-2.1,6.31-5.05,14.59-7.57,21.74c-0.42-1.12-0.7-2.24-1.12-3.37L118.95,264l-1.4-3.93h-4.21H86.27h-4.21
		l-1.4,3.93l-7.57,21.74c-2.52-7.15-5.47-15.43-7.72-21.74l-1.4-3.93H59.9H35.91L27.77,259.93z"/>
	<path id="XMLID_11_" class="st0" d="M483.38,265.54v22.16c0,0-23.85-0.14-36.05-0.14c-4.07,0-6.73,0-6.87,0
		c-2.1,0.42-3.37,4.77-2.81,6.73c0.28,0.98,2.52,4.21,4.91,7.15c2.38,2.95,6.31,7.86,8.56,10.8c6.03,7.57,6.87,9.12,7.43,13.47
		c0.98,7.01-2.38,14.73-8.7,19.78c-6.17,5.05-5.89,5.05-52.18,5.05c-0.7,0-1.4,0-1.96,0c-28.05,0-42.92-0.28-45.17-0.7
		c-3.79-0.84-9.96-5.89-26.09-21.46c-5.89-5.61-11.22-10.52-11.5-10.52l0,0l-0.14,32.54l-26.23-0.14l-0.14-84.02h33.1h25.39
		c17.67,0.7,29.6,18.24,27.21,29.46c-0.56,2.52-1.96,6.17-3.09,8.14c-2.38,4.07-8.28,9.12-13.19,11.36
		c-1.82,0.84-3.23,1.68-3.23,2.1c0,1.26,5.89,7.01,8.14,8c1.82,0.84,7.43,0.98,31.56,0.98c2.81,0,5.47,0,7.72,0
		c24.27,0,23.15-0.14,24.97-4.21c1.26-2.81,0.28-4.49-8.98-14.87c-11.78-11.64-10.52-17.25-10.52-21.46
		c-0.14-4.91,3.79-20.48,23.99-20.48L483.38,265.54 M326.14,304.25c11.22,0,13.47-0.14,15.85-1.26c8.14-3.51,8.56-13.89,0.7-18.52
		c-1.68-0.98-3.93-1.12-15.99-1.26l-14.03-0.14c0.14,0.14,0,20.2,0,20.2S316.18,304.25,326.14,304.25 M489.28,259.65h-5.89h-54.01
		c-11.78,0-18.66,4.63-22.44,8.56c-6.03,6.31-7.57,14.31-7.43,17.96c0,0.28,0,0.7,0,0.98c0,6.03,0.84,13.05,12.2,24.27
		c2.24,2.52,6.03,6.73,7.43,8.84c-3.09,0.42-10.94,0.42-19.22,0.42h-3.51h-4.21c-14.59,0-26.79,0-29.32-0.56
		c-0.42-0.28-0.84-0.56-1.4-1.12c5.05-3.09,10.1-7.86,12.48-12.06c1.4-2.52,3.09-6.73,3.79-9.96c1.54-7.01-0.98-15.57-6.59-22.72
		c-6.59-8.42-16.13-13.47-26.09-13.75h-0.14h-0.14H319.4h-33.1h-5.89v5.89l0.14,84.02v5.75h5.75l26.23,0.14h5.89v-5.89l0.14-19.5
		c0.56,0.56,1.12,0.98,1.68,1.54c17.67,16.97,23.71,21.74,28.9,22.86c1.4,0.28,3.79,0.84,46.43,0.84h1.96c23,0,34.65,0,41.52-0.7
		c7.86-0.7,10.38-2.52,14.17-5.61l0.14-0.14c7.86-6.31,11.92-15.99,10.8-25.11c-0.7-5.89-2.38-8.42-8.7-16.41l-1.96-2.38
		c-2.24-2.81-4.91-6.17-6.73-8.42c-1.4-1.82-2.52-3.37-3.23-4.49c0.84,0,2.1,0,3.65,0c11.92,0,35.77,0.14,35.91,0.14H489v-5.89
		v-22.16L489.28,259.65z M318.56,298.22c0-1.54,0-3.09,0-4.77c0-1.4,0-2.95,0-4.21h8.14c4.77,0,11.78,0,13.19,0.42
		c1.82,1.12,2.81,2.67,2.67,4.49c0,0.98-0.56,2.67-2.81,3.65c-1.26,0.56-3.37,0.7-13.61,0.7
		C322.91,298.5,320.39,298.36,318.56,298.22z"/>
	<path id="XMLID_16_" class="st0" d="M233.14,265.12l29.46,84.73l-23.99,0.14l-3.93-12.76l-42.92-0.28l-3.79,12.76l-23.71-0.28
		l29.04-84.16L233.14,265.12 M213.92,277.6c0,0.28-3.79,10.38-7.43,20.48c-3.79,10.24-7.43,20.48-7.57,20.48l0,0l0,0
		c0.14,0,13.33,0,21.88,0c3.93,0,6.87,0,7.01,0l0,0l0,0l0,0C227.52,318.28,213.92,278.02,213.92,277.6L213.92,277.6L213.92,277.6
		 M237.34,259.23h-4.21H193.3h-4.21l-1.4,3.93l-29.04,84.16l-2.67,7.72l8.14,0.14l23.71,0.28h4.35l1.26-4.21l2.52-8.56l34.23,0.28
		l2.67,8.7l1.26,4.07h4.35l23.99-0.14h8.14l-2.67-7.72l-29.46-84.73L237.34,259.23z M207.32,312.81c1.12-3.09,2.67-7.15,4.63-12.62
		c0.7-1.68,1.26-3.37,1.68-4.77c0.42,1.4,0.98,2.95,1.54,4.63c0.42,1.4,2.52,7.57,4.35,12.76
		C214.2,312.81,210.27,312.81,207.32,312.81z"/>
	<path id="XMLID_19_" class="st0" d="M243.09,163.98v20.9h-41.8v63.96h-24.97v-63.96l-48.82,0.14c-5.89,0-6.73,4.63-6.73,6.45
		c0,2.24,1.4,4.35,9.4,14.45c5.19,6.45,9.82,13.05,10.52,14.45c3.37,7.86-0.98,19.92-8.98,24.97c-5.75,3.51-4.77,3.65-46.99,3.65
		c-2.1,0-4.49,0-6.87,0H32.12v-23.43h71.54l2.1-1.4c1.4-0.98,2.24-2.38,2.52-4.21c0.42-2.67,0.28-3.09-8.56-13.05
		c-10.38-11.78-11.5-13.89-10.94-21.46c0.56-8.56,8.28-21.04,21.6-21.04L243.09,163.98 M248.99,158.09h-5.89l-132.7,0.14
		c-7.57,0-14.73,3.37-19.92,9.26c-4.21,4.91-7.01,11.22-7.43,17.11c-0.7,9.82,1.54,13.47,12.48,25.67c3.23,3.51,6.17,7.01,7.15,8.42
		v0.14l0,0l-0.56,0.42h-70h-5.89v5.89v23.43v5.89h5.89h45.45h3.65h3.23c20.9,0,31.14,0,37.17-0.42c6.87-0.56,9.12-1.68,12.48-3.79
		l0.42-0.28c10.38-6.45,15.85-21.74,11.22-32.26c-1.4-3.23-10.24-14.45-11.22-15.71c-2.81-3.51-7.29-9.26-8.14-10.94
		c0-0.14,0-0.28,0.14-0.42c0.14,0,0.42-0.14,0.7-0.14l43.06-0.14v58.07v5.89h5.89h24.97h5.89v-5.89v-58.07h36.05h5.89v-5.89v-20.9
		V158.09z"/>
	<path id="XMLID_24_" class="st0" d="M311.13,164.68l29.32,85.01l-23.99-0.14l-3.93-12.76l-42.78-0.14l-3.79,12.2h-24.41
		l29.04-84.16L311.13,164.68 M276.9,218.55h29.04l0,0c0.14,0-14.17-41.8-14.17-41.8C291.63,176.6,276.62,218.55,276.9,218.55
		 M315.34,158.79h-4.21h-40.4h-4.21l-1.4,3.93l-29.04,84.16l-2.67,7.72h8.14h24.41h4.35l1.26-4.07l2.52-8.14l34.09,0.14l2.67,8.56
		l1.26,4.07h4.35l23.99,0.14h8.28l-2.67-7.86l-29.32-85.01L315.34,158.79z M285.04,212.66c1.82-5.19,4.35-12.2,6.59-18.52
		c2.1,6.31,4.49,13.33,6.31,18.52H285.04z"/>
	<path id="XMLID_29_" class="st0" d="M393.61,164.68c18.94,0,32.12,0.28,34.65,0.7c5.89,0.98,11.08,4.07,15.15,8.98
		c4.21,5.05,5.05,7.43,5.61,14.31c0.84,9.68-3.79,18.1-12.91,23.57c-2.67,1.54-5.33,3.09-6.03,3.37c-0.98,0.42-0.84,0.98,0.98,3.09
		c1.26,1.4,3.37,3.37,4.63,4.49l2.52,1.96l45.31,0.7l0.42,23.15h-27.77c-21.46,0-28.34-0.14-30.44-0.84
		c-3.09-0.98-10.24-7.15-25.11-21.18L390.1,217l0.14,32.12h-27.07v-84.16h30.44 M389.54,202.56h14.45c14.03,0,14.45,0,16.41-1.54
		c3.51-2.67,4.77-5.47,4.49-9.68c-0.42-4.35-2.1-6.59-6.31-8.42c-2.38-0.98-4.63-1.26-15.85-1.26h-13.05v20.9 M393.61,158.79h-30.58
		h-5.89v5.89v84.16v5.89h5.89h27.07h5.89v-5.89v-18.38l0.56,0.56c18.24,17.39,23.71,21.32,27.21,22.58
		c2.67,0.98,7.29,1.12,32.26,1.12h27.77h5.89l-0.14-5.89l-0.42-23.15l-0.14-5.61l-5.61-0.14l-43.48-0.56l-0.84-0.7
		c-0.28-0.28-0.7-0.56-0.98-0.84c0.28-0.14,0.56-0.42,0.84-0.56c10.94-6.59,16.69-17.11,15.71-29.04c-0.56-8-2.1-11.64-7.01-17.53
		c-4.77-5.89-11.36-9.68-18.66-10.94C425.17,158.93,405.25,158.79,393.61,158.79z M395.43,187.55h7.29c10.24,0,12.34,0.14,13.47,0.7
		c2.38,0.98,2.67,1.54,2.81,3.65c0.14,2.1-0.14,2.95-2.1,4.49l-0.14,0.14c-1.4,0.28-6.45,0.28-12.76,0.28h-8.56V187.55z"/>
</g>
</svg>
